PathFileType	4	(X/Y/Z)	C:\Users\°ÂÌØÂü\Desktop\20210112\bx_y_0_901-Unnamed.trc
DataRate	CameraRate	NumFrames	NumMarkers	Units	OrigDataRate	OrigDataStartFrame	OrigNumFrames
50.00	50.00	       8	0	mm	50.00	229	       457
Frame#	Time	
		

229	4.560	-774.36157	213.60988	794.34485	-369.55786	273.75610	1051.79333	-800.07916	143.64116	562.62421	-920.70038	82.41164	1102.98022	-802.02661	73.57355	562.26581	-844.80536	279.68826	859.28607	-768.11804	-12.22171	793.74701	-721.44965	157.09627	221.14507	-869.65985	281.49207	724.78491	-859.09302	249.26176	615.39337	-858.28174	-63.28412	697.94507	-841.93329	245.26973	560.32263	-764.07776	14.14418	523.06281	-861.01715	256.05899	481.22406	-775.50140	206.22009	532.61475				-663.98737	-68.61864	160.75386				-777.74744	225.81523	200.12059	-882.67108	296.04764	144.50079	-677.74188	53.77137	162.52107	-605.34485	21.16346	166.88203	-677.78192	175.98386	161.73450	-596.98322	222.67136	173.28680	-667.41022	300.15152	158.48830	-629.79474	307.96857	162.24991	-562.27924	257.93222	166.23878	-528.01160	303.88577	146.37433	-94.54919	99.33663	1091.45642	-518.06769	-72.46438	142.59003	-800.43732	175.59486	180.85979	-773.81812	-11.23849	201.41479	-798.84869	49.83365	172.69633				-846.73004	-43.75757	469.58939	-561.00507	-35.06768	163.26506	-875.99139	-78.70409	141.37393				-729.33588	71.11835	220.52193	-828.19623	-36.83829	601.36200	-824.33081	-31.76239	555.47345	-622.15503	-79.28827	156.76573	-850.89960	-79.84510	842.00482	
230	4.580	-773.84894	213.81856	794.94019	-369.77939	273.33856	1055.01135	-799.54993	143.42567	563.00403	-921.11261	82.21085	1103.19385	-802.02661	73.57355	562.26581	-844.52252	279.79730	859.35925	-767.85486	-12.09951	793.84180	-721.52625	156.85864	221.24797	-869.17780	281.26788	724.95697	-858.78271	249.41476	615.77185	-858.12903	-63.30057	698.19373	-842.01770	245.03082	560.27094	-763.87280	13.90977	523.16144	-860.69293	256.50500	481.85651	-775.23602	206.15381	532.57318				-663.93927	-68.65822	160.84706				-777.74744	225.81523	200.12059	-882.69727	296.06870	144.54311	-677.89874	53.61803	162.15126	-605.43500	21.16490	166.82201	-678.01202	175.78270	162.12001	-597.14117	222.66187	173.30606	-667.48840	300.19312	158.38350	-629.75623	307.99619	162.13388	-562.51697	257.70615	166.12976	-528.06158	304.16208	146.28481	-94.82690	99.20559	1097.69104	-517.97583	-72.54118	142.77574	-800.54260	175.63431	180.97748	-773.86261	-11.13772	201.27498	-798.84680	49.77501	172.75307				-846.57031	-43.64981	469.56226	-561.00641	-35.14315	163.20352	-875.98657	-78.65415	141.42352				-729.46942	71.03244	220.41444	-827.99994	-37.13436	601.56927	-824.17303	-31.82788	555.55902	-622.21118	-79.54414	156.87582	-850.54193	-79.57156	841.92114	
231	4.600				-369.90106	273.17520	1059.83118	-799.65424	143.53577	562.93848	-921.44702	81.79658	1103.11011	-801.48743	73.33163	562.62292	-843.82025	279.63895	859.45032	-767.45685	-12.22375	794.18152	-721.38116	157.06120	221.29904	-868.79138	281.02319	725.23608	-858.56293	249.54555	616.04321	-858.07678	-63.28935	698.26733	-841.81451	244.83705	560.25098	-763.87811	14.01319	523.13184	-860.37469	256.01291	481.80502	-775.03235	206.08810	532.53455				-664.07184	-68.45953	160.66144				-777.76880	225.70776	199.99945	-882.53406	296.09598	144.57982	-677.98712	53.50652	162.09079	-605.45770	21.14414	166.78450	-677.78192	175.98386	161.73450	-597.08813	222.82887	173.40248	-667.52063	300.13974	158.47578	-629.63336	308.11450	162.21745	-562.51410	257.87082	165.97614	-528.12164	303.82550	146.26030	-95.21587	98.86736	1104.57043	-518.03992	-72.59371	142.94302	-800.48767	175.65877	180.89732	-773.94885	-11.10529	201.21530	-798.87933	49.76538	172.61644				-846.83307	-43.57631	469.72519	-561.02075	-35.01011	163.34804	-875.99139	-78.70409	141.37393				-729.35962	71.28524	220.65950	-828.08838	-37.00645	601.99731	-824.33539	-32.02841	555.76208	-622.17328	-79.44089	156.96675	-850.50793	-79.37286	841.69434	
232	4.620	-772.40851	213.45853	795.23846	-370.12204	272.81848	1064.14148	-799.54993	143.42567	563.00403	-921.85742	82.06550	1102.95264	-801.40582	73.55062	562.26526	-843.36267	279.50381	859.88129	-767.03943	-12.05604	794.08923	-721.30792	156.97377	221.27187	-868.32440	280.94876	725.57263	-858.55035	249.30759	616.01672	-858.28961	-62.91546	698.31561	-841.64862	244.77301	560.45984	-764.09100	14.05092	522.93225	-860.35052	255.75172	481.74994	-774.96466	205.89830	532.47357				-664.02832	-68.72171	160.70973				-777.68799	225.72247	200.15169	-882.76044	296.07446	144.55502	-677.89874	53.61803	162.15126	-605.31335	21.06879	166.88908	-677.83221	176.02731	161.90443	-597.25507	222.75572	173.41643	-667.57770	300.44366	158.49445	-629.73053	307.81973	162.32361	-562.53027	257.90671	166.11598	-528.05853	303.93689	146.30769	-95.84731	98.48633	1112.02222	-518.06769	-72.46438	142.59003	-800.26501	175.44386	180.95261	-773.98541	-11.08641	201.19617	-798.73047	49.79187	172.52339				-846.96820	-43.50337	469.66418	-561.05670	-35.23316	163.25806	-875.85522	-78.73365	141.22168				-729.23346	71.11050	220.66183	-828.12689	-36.92800	602.00598	-824.44153	-31.77232	555.69183	-622.15875	-79.51281	156.95734	-850.11816	-79.31255	842.20020	
233	4.640	-772.27789	213.05780	795.12146	-370.02765	272.49698	1069.57788	-799.54993	143.42567	563.00403	-922.07794	82.09481	1102.72583	-801.11902	73.39037	562.60785	-843.89911	277.85718	859.19031	-766.91888	-12.20173	794.16302	-721.28546	157.06100	221.14784	-867.47272	280.68512	725.65979	-857.98322	248.97475	616.36932	-858.13654	-62.90388	698.26892	-841.53589	244.52403	560.38885	-763.77557	13.65370	523.17889	-860.33453	255.60710	481.77771	-774.94214	205.82306	532.37183				-664.15295	-68.70926	160.57100				-777.66962	225.72586	200.08891	-882.67053	296.19333	144.58157	-677.98944	53.36912	162.39842	-605.48926	20.99955	166.82373	-677.79248	176.02911	161.52759	-597.25507	222.75572	173.41643	-667.72150	300.19220	158.40652	-629.73053	307.81973	162.32361	-562.51953	257.71170	165.88849	-528.13055	303.94391	146.17865	-96.51914	98.35878	1120.05359	-518.00836	-72.38460	142.69888	-800.12421	175.36871	180.87918	-774.04333	-11.03242	201.09023	-798.54761	49.82267	172.06717				-847.03986	-43.43199	469.58514	-561.00641	-35.14315	163.20352	-876.00970	-78.74700	141.30463				-729.33588	71.11835	220.52193	-828.08997	-36.90255	601.92004	-824.53247	-31.81490	555.69153	-622.20117	-79.70636	157.07814	-850.04688	-79.20069	842.50543	
234	4.660	-771.91583	212.84642	795.61212	-370.06543	272.33997	1074.76123	-799.29175	143.28763	563.00305	-922.02747	82.03631	1102.34033	-801.11902	73.39037	562.60785	-842.81982	277.92163	859.78418	-766.94324	-12.09530	794.36920	-721.29407	156.95308	221.10878	-866.73450	280.43176	726.18726	-858.00836	248.88805	616.51465	-857.20642	-63.09921	698.40527	-841.25616	243.96880	560.36200	-763.98383	13.59329	523.06775	-860.18457	255.55975	481.87741	-774.71143	205.66237	532.43567	-377.79044	-81.75149	1025.56348	-664.11206	-68.60619	160.61513				-777.73608	225.70662	200.23592	-882.60608	296.12878	144.55070	-677.77637	53.57426	162.57368	-605.46436	20.88254	166.88313	-677.64832	176.13878	161.93675	-597.18408	222.98769	173.36180	-667.72131	300.35309	158.38464	-629.72980	307.90555	162.20433	-562.54309	258.00021	166.12494	-527.99561	303.95700	146.33847	-97.22440	97.88950	1128.19360	-518.07581	-72.69363	142.94855	-800.17725	175.42485	180.87653	-774.04266	-11.03454	201.10397	-798.73047	49.79187	172.52339				-847.04993	-43.35515	469.66907	-561.00641	-35.14315	163.20352	-875.97723	-78.74032	141.08293				-729.31885	70.98963	220.61414	-827.66003	-36.92699	602.05005	-824.73840	-31.43224	555.66302	-622.08276	-79.72546	157.18347	-850.04688	-79.20069	842.50543	
235	4.680	-771.39661	212.63863	795.96899	-369.73224	272.97589	1081.01697	-799.29175	143.28763	563.00305	-922.54419	82.06108	1102.27393	-800.70313	73.35553	562.74066	-842.09552	277.85031	859.83978	-766.78955	-11.88763	794.58746	-720.91516	156.93533	221.11073	-866.30365	280.38846	726.10187	-857.81531	248.85757	616.47260	-856.96759	-62.97878	698.68298	-841.12677	244.42143	560.88507	-763.68500	13.67732	523.11786	-859.92279	255.52945	481.78549	-774.35962	205.86263	532.81647	-378.08417	-81.23822	1030.53394	-664.06146	-68.86829	160.57751				-777.75757	225.61307	200.12793	-882.74536	296.02060	144.44994	-677.85016	53.52195	162.28200	-605.46179	20.88211	166.88634	-677.66949	176.11664	161.67661	-597.23187	222.99417	173.18637	-667.50043	300.32089	158.51707	-629.79474	307.96857	162.24991	-562.46448	257.74927	165.76318	-527.94086	304.11801	146.27614	-97.97926	97.59479	1137.86230	-517.99005	-72.58737	142.70663	-800.31396	175.47902	180.88371	-774.14978	-11.01512	201.20064	-798.81396	49.94968	172.57349				-846.96747	-43.22166	469.55807	-561.00641	-35.14315	163.20352	-875.98065	-78.66398	141.17288				-729.31885	70.98963	220.61414	-827.61969	-36.54634	601.94104	-824.60193	-31.54515	555.84436	-622.17328	-79.44089	156.96675	-849.52307	-78.68633	842.81604	
236	4.700				-369.89612	272.64206	1087.04980	-799.27606	143.13454	563.17535	-922.88531	82.06264	1102.33154	-799.80084	73.91293	563.05170	-841.53406	277.85480	860.14020	-766.11700	-11.84453	794.78467	-720.98560	156.81653	221.16853	-865.57031	280.68561	726.67346	-857.04016	248.84410	616.96490	-856.49426	-62.33850	698.97974	-840.98047	244.28896	560.97137	-763.27631	13.44770	523.00281	-859.74731	255.64474	481.79858	-774.17688	205.61185	532.60577	-377.68637	-82.14572	1037.66797	-664.08710	-68.68460	160.64561				-777.85675	225.59496	200.03847	-882.55640	296.06802	144.49452	-677.74188	53.77137	162.52107	-605.38550	20.82314	166.88556	-677.83221	176.02731	161.90443	-597.27191	223.10182	173.21576	-667.73059	300.54416	158.43610	-629.79474	307.96857	162.24991	-562.65137	257.94662	166.16833	-527.99561	303.95700	146.33847	-99.18243	97.14880	1147.00232	-517.88293	-72.62632	142.78499	-800.17725	175.42485	180.87653	-774.20435	-10.83606	201.32388	-798.93958	49.87062	172.59523				-846.84833	-43.14786	469.51733	-561.00641	-35.14315	163.20352	-876.12408	-78.67393	141.31659				-729.31885	70.98963	220.61414	-827.56079	-36.22362	602.16809	-824.31677	-31.46593	556.22534	-622.15875	-79.51281	156.95734	-848.88983	-78.72308	843.39111	
